<svg width="50" height="50" viewBox="0 0 50 50" fill="none" xmlns="http://www.w3.org/2000/svg">
<circle cx="25" cy="25" r="25" fill="#333333"/>
<path d="M27.6673 28.3711L29.0451 26.9928C29.2307 26.8094 29.4654 26.6839 29.7209 26.6315C29.9764 26.5791 30.2416 26.602 30.4844 26.6974L32.1635 27.3681C32.4088 27.4677 32.6191 27.6377 32.768 27.8567C32.9169 28.0758 32.9976 28.3339 33 28.5988V31.6753C32.9986 31.8555 32.9607 32.0335 32.8887 32.1986C32.8167 32.3638 32.712 32.5126 32.581 32.6362C32.45 32.7598 32.2953 32.8556 32.1263 32.9178C31.9573 32.9801 31.7775 33.0074 31.5976 32.9983C19.8314 32.2661 17.4572 22.2979 17.0082 18.4829C16.9873 18.2956 17.0064 18.106 17.0641 17.9265C17.1217 17.7471 17.2168 17.5819 17.3428 17.4418C17.4689 17.3017 17.6232 17.1899 17.7956 17.1138C17.9679 17.0376 18.1545 16.9989 18.3429 17H21.3137C21.5788 17.0008 21.8376 17.0809 22.0568 17.23C22.276 17.3792 22.4456 17.5905 22.5438 17.8369L23.2142 19.5167C23.3128 19.7585 23.338 20.0241 23.2865 20.2802C23.2351 20.5362 23.1094 20.7715 22.9252 20.9565L21.5474 22.3348C21.5474 22.3348 22.3408 27.7065 27.6673 28.3711Z" fill="white"/>
</svg>
