<svg width="40" height="40" viewBox="0 0 40 40" fill="none" xmlns="http://www.w3.org/2000/svg">
<circle cx="20" cy="20" r="19.5" stroke="#EAEAEA"/>
<path d="M19.2959 26.1371L19.2948 26.1361C17.1342 24.1769 15.4014 22.6016 14.1998 21.1316C13.0066 19.6717 12.416 18.4076 12.416 17.0833C12.416 14.9234 14.096 13.25 16.2493 13.25C17.4726 13.25 18.6591 13.8233 19.4302 14.7218L19.9994 15.3849L20.5685 14.7218C21.3396 13.8233 22.5261 13.25 23.7494 13.25C25.9027 13.25 27.5827 14.9234 27.5827 17.0833C27.5827 18.4076 26.9921 19.6717 25.7989 21.1316C24.5973 22.6016 22.8645 24.1769 20.7039 26.1361L20.7028 26.1371L19.9994 26.7774L19.2959 26.1371Z" stroke="#333333" stroke-width="1.5"/>
</svg>
