<svg width="143" height="49" viewBox="0 0 143 49" fill="none" xmlns="http://www.w3.org/2000/svg">
<path d="M19.966 47.966H1.03396V0.0339627H19.966V47.966Z" fill="#CB9B81" stroke="white" stroke-width="0.0679254"/>
<path d="M20 25C16.8462 36.7232 13.3077 42.7897 10 48H1V0H20V25Z" fill="#DCA98C"/>
<path d="M20 0C15.4462 27.6147 5.48718 43.4627 1 48V0H20Z" fill="#E1AF93"/>
<path d="M12 0C10.302 12.1287 3.73154 28.7641 1 34V0H12Z" fill="#DCA98C"/>
<path d="M5 0C3.54545 7.24576 3.47273 8.26271 1 15V0H5Z" fill="#CB9B81"/>
<path d="M1 48C5.48718 43.4627 15.4462 27.6147 20 0" stroke="white" stroke-width="0.0679254"/>
<path d="M1 16C3.47273 8.81356 3.54545 7.72881 5 0" stroke="white" stroke-width="0.0679254"/>
<path d="M10 48C13.4677 42.9425 16.6935 37.3793 20 26" stroke="white" stroke-width="0.0679254"/>
<path d="M1 34C3.73154 28.7641 10.302 12.1287 12 0" stroke="white" stroke-width="0.0679254"/>
<path d="M35.761 23.2468L31.6713 17.4296H30.314V23H28.5865V11.3305H32.3941C33.1579 11.3305 33.8454 11.448 34.4565 11.683C35.0676 11.9063 35.5494 12.2412 35.902 12.6878C36.2663 13.1226 36.4485 13.6632 36.4485 14.3095C36.4485 15.1439 36.1312 15.8079 35.4966 16.3015C34.862 16.7833 34.057 17.1123 33.0816 17.2886L37.8058 23L35.761 23.2468ZM30.314 16.9008H31.4422C32.3001 16.9008 32.9523 16.7774 33.3989 16.5306C33.8572 16.2838 34.1745 15.9724 34.3508 15.5964C34.527 15.2086 34.6152 14.809 34.6152 14.3977C34.6152 14.3389 34.5975 14.2096 34.5623 14.0099C34.5388 13.7983 34.4683 13.5633 34.3508 13.3048C34.2332 13.0345 34.0393 12.7818 33.769 12.5468C33.5105 12.3 33.1462 12.112 32.6761 11.9827C32.3353 11.9827 31.9299 12.0121 31.4598 12.0708C31.0015 12.1296 30.6196 12.2001 30.314 12.2824V16.9008ZM39.6866 23L40.3388 11.3305H41.9782L46.0502 20.2324L49.9459 11.3305H51.7439L52.3962 23H50.5981L50.1222 12.9698H50.0517L45.6095 23H45.3627L41.0087 13.3753H40.9381L40.4622 23H39.6866ZM60.8693 23.2115C60.0232 23.2115 59.2123 23.0999 58.4367 22.8766C57.6611 22.6416 56.9677 22.289 56.3566 21.8189C55.7573 21.3371 55.2813 20.7378 54.9288 20.0209C54.5762 19.3041 54.3999 18.4579 54.3999 17.4825C54.3999 16.3544 54.5997 15.3907 54.9993 14.5916C55.4106 13.7807 55.9512 13.1226 56.621 12.6173C57.2909 12.1002 58.0254 11.7241 58.8245 11.4891C59.6236 11.2423 60.411 11.1189 61.1866 11.1189C61.5509 11.1189 61.9328 11.1483 62.3324 11.2071C62.732 11.2658 63.1021 11.3363 63.4429 11.4186C63.7837 11.5009 64.0482 11.5772 64.2362 11.6478L64.0599 12.8464C63.4253 12.5761 62.7966 12.3411 62.1737 12.1413C61.5627 11.9416 60.8752 11.8417 60.1113 11.8417C58.8656 12.1237 57.9137 12.7407 57.2556 13.6926C56.5975 14.6327 56.2685 15.802 56.2685 17.2005C56.2685 18.3757 56.48 19.3687 56.9031 20.1796C57.3379 20.9787 57.9255 21.5839 58.6658 21.9952C59.4062 22.3948 60.2523 22.5946 61.2042 22.5946C61.8271 22.5946 62.444 22.5182 63.0551 22.3654C63.6662 22.2009 64.1539 21.96 64.5182 21.6427V22.6122C64.1657 22.7532 63.772 22.8707 63.3372 22.9647C62.9024 23.047 62.4675 23.1058 62.0327 23.141C61.6097 23.188 61.2219 23.2115 60.8693 23.2115ZM71.0376 23V11.3305H74.3692C75.1566 11.3305 75.9498 11.4421 76.749 11.6654C77.5481 11.8769 78.2826 12.2295 78.9524 12.723C79.6223 13.2049 80.157 13.8395 80.5566 14.6268C80.9679 15.4025 81.1735 16.3544 81.1735 17.4825C81.1735 18.4579 80.9972 19.2982 80.6447 20.0033C80.2921 20.6966 79.8103 21.2666 79.1992 21.7132C78.5999 22.148 77.9124 22.4712 77.1368 22.6827C76.3612 22.8942 75.5503 23 74.7042 23H71.0376ZM74.3516 22.4007C75.3035 22.4007 76.1496 22.2126 76.89 21.8366C77.6421 21.4605 78.2297 20.8906 78.6528 20.1267C79.0876 19.3511 79.305 18.3757 79.305 17.2005C79.305 16.2956 79.1346 15.4847 78.7938 14.7679C78.4647 14.051 78.0064 13.4517 77.4188 12.9698C76.843 12.488 76.1849 12.1531 75.4445 11.9651C75.0332 11.9651 74.5631 12.0003 74.0343 12.0708C73.5172 12.1413 73.0942 12.2295 72.7651 12.3352V22.242C72.9296 22.289 73.1647 22.3301 73.4702 22.3654C73.7758 22.3889 74.0696 22.4007 74.3516 22.4007ZM83.5181 23V11.3305H90.5869L90.4106 12.5115L87.1318 11.9651C86.791 11.9651 86.4737 11.9944 86.1799 12.0532C85.8861 12.1002 85.5688 12.1707 85.228 12.2647V16.5483H89.1414V17.2181H85.228V22.3654L90.6926 21.8189L90.5163 23H83.5181ZM97.8234 23V11.3305H99.551V22.0481C99.8565 22.1304 100.162 22.2068 100.468 22.2773C100.785 22.336 101.055 22.3654 101.278 22.3654L104.469 21.8189L104.258 23H97.8234ZM110.521 23.2115C109.651 23.2115 108.94 23.094 108.388 22.859C107.835 22.6122 107.401 22.3066 107.083 21.9423C106.778 21.5663 106.56 21.1726 106.431 20.7613C106.302 20.3382 106.22 19.9445 106.184 19.5802C106.161 19.2159 106.149 18.928 106.149 18.7165V11.3305H107.947V18.8575C107.947 19.0808 107.953 19.3511 107.965 19.6684C107.988 19.9739 108.047 20.2853 108.141 20.6026C108.235 20.9199 108.388 21.2196 108.599 21.5016C108.823 21.7837 109.128 22.0128 109.516 22.1891C109.904 22.3537 110.403 22.4359 111.014 22.4359C112.025 22.4359 112.824 22.1656 113.412 21.625C114.011 21.0845 114.311 20.1796 114.311 18.9104V11.3305H115.086V18.4873C115.086 18.7694 115.069 19.1102 115.033 19.5097C115.01 19.9093 114.928 20.3265 114.787 20.7613C114.657 21.1843 114.428 21.5839 114.099 21.96C113.782 22.336 113.335 22.6416 112.759 22.8766C112.184 23.0999 111.437 23.2115 110.521 23.2115ZM116.941 23L121.348 17.3415L117.153 11.3305H119.356L122.282 16.1781L125.949 11.3305H127.024L122.67 16.7245L127.271 23H125.068L121.754 17.8527L118.017 23H116.941ZM129.395 23V11.3305H136.464L136.287 12.5115L133.009 11.9651C132.668 11.9651 132.351 11.9944 132.057 12.0532C131.763 12.1002 131.446 12.1707 131.105 12.2647V16.5483H135.018V17.2181H131.105V22.3654L136.569 21.8189L136.393 23H129.395Z" fill="#333333"/>
<path d="M28.7769 34.5326C28.9003 34.2694 29.1018 34.0185 29.3815 33.7799C29.6694 33.5331 29.9573 33.4097 30.2453 33.4097C30.4262 33.4097 30.562 33.4344 30.6525 33.4838V34.4956C30.4715 34.2735 30.2165 34.1624 29.8874 34.1624C29.5419 34.1624 29.2704 34.3146 29.073 34.619C28.8756 34.9152 28.7769 35.2977 28.7769 35.7666V36.7661C28.7769 37.2267 28.8303 37.5434 28.9373 37.7162C29.0442 37.8889 29.1471 37.9835 29.2458 38H27.5059C27.6046 37.9835 27.7075 37.8931 27.8144 37.7285C27.9296 37.5558 27.9872 37.235 27.9872 36.7661V34.9028C27.9872 34.5573 27.9296 34.3229 27.8144 34.1995C27.7075 34.0678 27.5841 34.002 27.4442 34.002L28.7769 33.4097V34.5326ZM33.2106 38.1481C32.7664 38.1481 32.3838 38.0411 32.063 37.8272C31.7422 37.6051 31.4954 37.3213 31.3226 36.9758C31.1581 36.6221 31.0759 36.2478 31.0759 35.8529C31.0759 35.3429 31.1746 34.9028 31.372 34.5326C31.5777 34.1624 31.8409 33.8828 32.1617 33.6936C32.4825 33.5043 32.8157 33.4097 33.1612 33.4097C33.6548 33.4097 34.0784 33.5907 34.4322 33.9527C34.7941 34.3064 34.9916 34.8 35.0245 35.4334H31.8162C31.8162 35.8283 31.8903 36.1779 32.0383 36.4823C32.1864 36.7784 32.3838 37.0087 32.6306 37.1733C32.8856 37.3296 33.1612 37.4077 33.4574 37.4077C34.2306 37.4077 34.753 37.1609 35.0245 36.6673C34.9504 37.1116 34.7489 37.4694 34.4198 37.7409C34.0908 38.0123 33.6877 38.1481 33.2106 38.1481ZM33.0748 33.8169C32.754 33.8169 32.4784 33.9321 32.2481 34.1624C32.0178 34.3846 31.8779 34.6766 31.8286 35.0385H34.0743C34.0743 34.6601 33.9715 34.364 33.7658 34.1501C33.5684 33.928 33.3381 33.8169 33.0748 33.8169ZM39.3604 38.1481C39.0972 38.1398 38.8751 38.0699 38.6941 37.9383C38.5131 37.8067 38.4103 37.6545 38.3856 37.4817C38.2375 37.6956 38.0401 37.8602 37.7933 37.9753C37.5547 38.0905 37.3162 38.1481 37.0776 38.1481C36.6992 38.1481 36.3825 38.0411 36.1275 37.8272C35.8725 37.6051 35.745 37.3172 35.745 36.9635C35.745 36.0504 36.6005 35.5938 38.3116 35.5938V35.4581C38.3116 35.0056 38.2458 34.6725 38.1141 34.4586C37.9332 34.1542 37.637 34.002 37.2257 34.002C36.9049 34.002 36.6375 34.0966 36.4236 34.2858C36.218 34.475 36.1152 34.7218 36.1152 35.0262C36.0658 34.9439 36.0247 34.8699 35.9918 34.8041C35.9671 34.7383 35.9547 34.6478 35.9547 34.5326C35.9547 34.2365 36.0946 33.9774 36.3743 33.7552C36.654 33.5249 37.02 33.4097 37.4725 33.4097C38.1141 33.4097 38.5707 33.6236 38.8422 34.0514C38.9326 34.183 38.9985 34.3475 39.0396 34.545C39.0807 34.7424 39.1013 35.0015 39.1013 35.3224V36.7907C39.1013 37.0458 39.1712 37.2432 39.3111 37.383C39.4591 37.5229 39.6648 37.5928 39.928 37.5928H40.0884L39.3604 38.1481ZM38.3116 35.964C37.6535 35.964 37.2092 36.0463 36.9789 36.2108C36.7486 36.3753 36.6334 36.5974 36.6334 36.8771C36.6334 37.1075 36.6951 37.2884 36.8185 37.42C36.9419 37.5517 37.1064 37.6175 37.3121 37.6175C37.4684 37.6175 37.6164 37.5805 37.7563 37.5064C37.8961 37.4324 38.0154 37.3296 38.1141 37.1979C38.2458 37.0252 38.3116 36.7907 38.3116 36.4946V35.964ZM40.7102 30.4113C40.7102 30.0658 40.6526 29.8313 40.5375 29.7079C40.4305 29.5763 40.3071 29.5105 40.1673 29.5105H40.0933L41.4999 28.8688V36.7661C41.4999 37.128 41.537 37.3995 41.611 37.5805C41.685 37.7614 41.7673 37.8848 41.8578 37.9506C41.9483 38.0082 41.9935 38.0247 41.9935 38H40.2166C40.2166 38.0247 40.2619 38.0082 40.3524 37.9506C40.4429 37.8848 40.5251 37.7614 40.5992 37.5805C40.6732 37.3913 40.7102 37.1198 40.7102 36.7661V30.4113ZM47.5276 38.1481C47.0834 38.1481 46.7009 38.0411 46.3801 37.8272C46.0593 37.6051 45.8125 37.3213 45.6397 36.9758C45.4752 36.6221 45.3929 36.2478 45.3929 35.8529C45.3929 35.3429 45.4916 34.9028 45.6891 34.5326C45.8947 34.1624 46.158 33.8828 46.4788 33.6936C46.7996 33.5043 47.1328 33.4097 47.4783 33.4097C47.9719 33.4097 48.3955 33.5907 48.7492 33.9527C49.1112 34.3064 49.3086 34.8 49.3415 35.4334H46.1333C46.1333 35.8283 46.2073 36.1779 46.3554 36.4823C46.5035 36.7784 46.7009 37.0087 46.9477 37.1733C47.2027 37.3296 47.4783 37.4077 47.7744 37.4077C48.5477 37.4077 49.0701 37.1609 49.3415 36.6673C49.2675 37.1116 49.066 37.4694 48.7369 37.7409C48.4079 38.0123 48.0048 38.1481 47.5276 38.1481ZM47.3919 33.8169C47.0711 33.8169 46.7955 33.9321 46.5652 34.1624C46.3348 34.3846 46.195 34.6766 46.1456 35.0385H48.3914C48.3914 34.6601 48.2886 34.364 48.0829 34.1501C47.8855 33.928 47.6552 33.8169 47.3919 33.8169ZM51.5798 38.1481C51.333 38.1481 51.078 38.1069 50.8147 38.0247C50.5515 37.9424 50.3335 37.8355 50.1608 37.7039V36.618C50.3171 37.0046 50.5268 37.2843 50.7901 37.4571C51.0615 37.6216 51.3536 37.7039 51.6662 37.7039C51.9212 37.7039 52.1268 37.6339 52.2831 37.4941C52.4477 37.3542 52.5299 37.2021 52.5299 37.0375C52.5299 36.8565 52.4477 36.7044 52.2831 36.581C52.1186 36.4576 51.8677 36.3177 51.5304 36.1614C51.0944 35.9558 50.7572 35.7542 50.5186 35.5568C50.28 35.3594 50.1608 35.092 50.1608 34.7547C50.1608 34.3846 50.3006 34.0678 50.5803 33.8046C50.86 33.5414 51.2261 33.4097 51.6785 33.4097C51.9911 33.4097 52.2626 33.4468 52.4929 33.5208C52.7232 33.5948 52.896 33.6771 53.0112 33.7676L52.8137 34.693C52.715 34.4133 52.5505 34.2036 52.3202 34.0637C52.0898 33.9239 51.8471 33.854 51.5921 33.854C51.37 33.854 51.1849 33.9198 51.0369 34.0514C50.897 34.183 50.8271 34.3311 50.8271 34.4956C50.8271 34.7177 50.9135 34.8946 51.0862 35.0262C51.2672 35.1578 51.5387 35.3018 51.9006 35.4581C52.3284 35.6391 52.6533 35.8242 52.8754 36.0134C53.1058 36.1943 53.2209 36.4535 53.2209 36.7907C53.2209 37.0293 53.1551 37.2514 53.0235 37.4571C52.8919 37.6627 52.6986 37.8314 52.4435 37.963C52.1968 38.0864 51.9088 38.1481 51.5798 38.1481ZM55.55 38.1481C55.1469 38.1481 54.8425 38.0123 54.6369 37.7409C54.4312 37.4612 54.3284 37.128 54.3284 36.7414V34.002H53.6374L55.1181 32.3239V33.5085H56.6976V34.002H55.1181V36.6056C55.1181 36.9182 55.2004 37.1568 55.3649 37.3213C55.5294 37.4776 55.7186 37.5558 55.9325 37.5558C56.097 37.5558 56.2574 37.5064 56.4137 37.4077C56.57 37.309 56.6976 37.1733 56.7963 37.0005C56.6729 37.7656 56.2574 38.1481 55.55 38.1481ZM60.9264 38.1481C60.6632 38.1398 60.441 38.0699 60.2601 37.9383C60.0791 37.8067 59.9763 37.6545 59.9516 37.4817C59.8035 37.6956 59.6061 37.8602 59.3593 37.9753C59.1207 38.0905 58.8822 38.1481 58.6436 38.1481C58.2652 38.1481 57.9485 38.0411 57.6935 37.8272C57.4385 37.6051 57.311 37.3172 57.311 36.9635C57.311 36.0504 58.1665 35.5938 59.8775 35.5938V35.4581C59.8775 35.0056 59.8117 34.6725 59.6801 34.4586C59.4991 34.1542 59.203 34.002 58.7917 34.002C58.4709 34.002 58.2035 34.0966 57.9896 34.2858C57.784 34.475 57.6811 34.7218 57.6811 35.0262C57.6318 34.9439 57.5906 34.8699 57.5577 34.8041C57.5331 34.7383 57.5207 34.6478 57.5207 34.5326C57.5207 34.2365 57.6606 33.9774 57.9403 33.7552C58.22 33.5249 58.586 33.4097 59.0385 33.4097C59.6801 33.4097 60.1367 33.6236 60.4081 34.0514C60.4986 34.183 60.5644 34.3475 60.6056 34.545C60.6467 34.7424 60.6673 35.0015 60.6673 35.3224V36.7907C60.6673 37.0458 60.7372 37.2432 60.877 37.383C61.0251 37.5229 61.2308 37.5928 61.494 37.5928H61.6544L60.9264 38.1481ZM59.8775 35.964C59.2194 35.964 58.7752 36.0463 58.5449 36.2108C58.3146 36.3753 58.1994 36.5974 58.1994 36.8771C58.1994 37.1075 58.2611 37.2884 58.3845 37.42C58.5079 37.5517 58.6724 37.6175 58.8781 37.6175C59.0344 37.6175 59.1824 37.5805 59.3223 37.5064C59.4621 37.4324 59.5814 37.3296 59.6801 37.1979C59.8117 37.0252 59.8775 36.7907 59.8775 36.4946V35.964ZM63.4978 38.1481C63.0947 38.1481 62.7904 38.0123 62.5847 37.7409C62.379 37.4612 62.2762 37.128 62.2762 36.7414V34.002H61.5852L63.0659 32.3239V33.5085H64.6454V34.002H63.0659V36.6056C63.0659 36.9182 63.1482 37.1568 63.3127 37.3213C63.4772 37.4776 63.6664 37.5558 63.8803 37.5558C64.0449 37.5558 64.2053 37.5064 64.3616 37.4077C64.5179 37.309 64.6454 37.1733 64.7441 37.0005C64.6207 37.7656 64.2053 38.1481 63.4978 38.1481ZM67.2948 38.1481C66.8506 38.1481 66.468 38.0411 66.1472 37.8272C65.8264 37.6051 65.5796 37.3213 65.4069 36.9758C65.2423 36.6221 65.1601 36.2478 65.1601 35.8529C65.1601 35.3429 65.2588 34.9028 65.4562 34.5326C65.6619 34.1624 65.9251 33.8828 66.2459 33.6936C66.5668 33.5043 66.8999 33.4097 67.2454 33.4097C67.739 33.4097 68.1627 33.5907 68.5164 33.9527C68.8783 34.3064 69.0758 34.8 69.1087 35.4334H65.9004C65.9004 35.8283 65.9745 36.1779 66.1225 36.4823C66.2706 36.7784 66.468 37.0087 66.7148 37.1733C66.9698 37.3296 67.2454 37.4077 67.5416 37.4077C68.3148 37.4077 68.8372 37.1609 69.1087 36.6673C69.0346 37.1116 68.8331 37.4694 68.504 37.7409C68.175 38.0123 67.7719 38.1481 67.2948 38.1481ZM67.159 33.8169C66.8382 33.8169 66.5626 33.9321 66.3323 34.1624C66.102 34.3846 65.9621 34.6766 65.9128 35.0385H68.1585C68.1585 34.6601 68.0557 34.364 67.8501 34.1501C67.6526 33.928 67.4223 33.8169 67.159 33.8169Z" fill="#A6A6A6"/>
</svg>
