<svg width="40" height="40" viewBox="0 0 40 40" fill="none" xmlns="http://www.w3.org/2000/svg">
<circle cx="20" cy="20" r="19.5" stroke="#EAEAEA"/>
<path d="M25.5451 24.6625L27.9864 27.1025C28.1002 27.2204 28.1632 27.3782 28.1618 27.5421C28.1604 27.706 28.0946 27.8627 27.9787 27.9786C27.8629 28.0945 27.7061 28.1602 27.5422 28.1617C27.3784 28.1631 27.2205 28.1001 27.1026 27.9862L24.6614 25.545C23.0661 26.9118 21.0034 27.6076 18.9061 27.4863C16.8089 27.3651 14.8401 26.4363 13.4129 24.8948C11.9857 23.3532 11.2111 21.3189 11.2515 19.2185C11.2919 17.1182 12.1443 15.1151 13.6298 13.6296C15.1152 12.1442 17.1183 11.2918 19.2186 11.2514C21.319 11.211 23.3534 11.9856 24.8949 13.4128C26.4364 14.84 27.3652 16.8088 27.4865 18.906C27.6077 21.0032 26.9119 23.0659 25.5451 24.6612V24.6625ZM19.3751 26.25C21.1985 26.25 22.9471 25.5257 24.2365 24.2363C25.5258 22.947 26.2501 21.1983 26.2501 19.375C26.2501 17.5516 25.5258 15.8029 24.2365 14.5136C22.9471 13.2243 21.1985 12.5 19.3751 12.5C17.5517 12.5 15.8031 13.2243 14.5137 14.5136C13.2244 15.8029 12.5001 17.5516 12.5001 19.375C12.5001 21.1983 13.2244 22.947 14.5137 24.2363C15.8031 25.5257 17.5517 26.25 19.3751 26.25Z" fill="#333333"/>
</svg>
