<svg width="20" height="19" viewBox="0 0 20 19" fill="none" xmlns="http://www.w3.org/2000/svg">
<path fill-rule="evenodd" clip-rule="evenodd" d="M15.861 0.66297L16.021 0.71697L17.223 1.11697C17.686 1.27197 18.093 1.40697 18.414 1.55697C18.762 1.71897 19.081 1.92697 19.325 2.26597C19.569 2.60497 19.666 2.97297 19.71 3.35397C19.75 3.70697 19.75 4.13497 19.75 4.62397V12.836C19.75 13.534 19.75 14.123 19.696 14.589C19.64 15.073 19.514 15.551 19.161 15.937C18.952 16.1658 18.6981 16.3489 18.415 16.475C17.937 16.687 17.444 16.655 16.967 16.556C16.507 16.46 15.949 16.274 15.287 16.053L15.244 16.039C14.124 15.665 13.739 15.549 13.367 15.562C13.2184 15.5673 13.0707 15.5871 12.926 15.621C12.563 15.706 12.223 15.92 11.24 16.575L9.858 17.497L9.718 17.59C8.656 18.299 7.918 18.791 7.054 18.907C6.191 19.023 5.349 18.742 4.139 18.337L3.979 18.284L2.777 17.884C2.314 17.729 1.907 17.594 1.586 17.444C1.238 17.282 0.919 17.074 0.675 16.734C0.431 16.396 0.334 16.028 0.29 15.646C0.25 15.293 0.25 14.866 0.25 14.377V6.16497C0.25 5.46597 0.25 4.87697 0.304 4.41197C0.36 3.92797 0.486 3.44997 0.839 3.06397C1.04797 2.83518 1.30194 2.65202 1.585 2.52597C2.063 2.31297 2.557 2.34497 3.033 2.44497C3.493 2.53997 4.051 2.72697 4.713 2.94797L4.756 2.96197C5.876 3.33497 6.261 3.45197 6.634 3.43897C6.78223 3.43354 6.92958 3.41378 7.074 3.37997C7.437 3.29397 7.777 3.07997 8.76 2.42597L10.142 1.50397L10.282 1.40997C11.344 0.70197 12.082 0.20997 12.945 0.0939704C13.809 -0.0220296 14.651 0.25797 15.861 0.66297ZM13.75 1.60697V14.08C14.286 14.138 14.85 14.326 15.593 14.574L15.718 14.616C16.435 14.855 16.91 15.012 17.273 15.088C17.629 15.162 17.75 15.128 17.805 15.104C17.8994 15.0621 17.9842 15.0011 18.054 14.925C18.094 14.881 18.164 14.776 18.206 14.415C18.249 14.047 18.25 13.546 18.25 12.791V4.66297C18.25 4.12297 18.249 3.78297 18.22 3.52497C18.192 3.28597 18.148 3.19697 18.108 3.14297C18.069 3.08897 17.999 3.01797 17.782 2.91697C17.546 2.80697 17.222 2.69897 16.712 2.52797L15.547 2.13997C14.66 1.84397 14.134 1.67697 13.75 1.60697ZM12.25 14.26V1.93397C11.939 2.11397 11.54 2.37497 10.974 2.75197L9.592 3.67397L9.482 3.74697C8.794 4.20697 8.281 4.54897 7.75 4.74097V17.067C8.061 16.887 8.46 16.625 9.026 16.248L10.408 15.327L10.518 15.254C11.206 14.794 11.719 14.452 12.25 14.26ZM6.25 17.395V4.91997C5.714 4.86197 5.15 4.67397 4.407 4.42597L4.282 4.38397C3.565 4.14497 3.09 3.98797 2.726 3.91197C2.371 3.83797 2.25 3.87097 2.196 3.89497C2.10111 3.93703 2.01598 3.99832 1.946 4.07497C1.906 4.11797 1.836 4.22297 1.794 4.58397C1.751 4.95197 1.75 5.45397 1.75 6.20897V14.337C1.75 14.877 1.751 15.217 1.78 15.475C1.808 15.714 1.852 15.802 1.892 15.857C1.931 15.911 2.001 15.982 2.218 16.083C2.454 16.193 2.778 16.301 3.288 16.472L4.453 16.86C5.34 17.155 5.865 17.323 6.25 17.394" fill="white"/>
</svg>
